<svg width="165" height="169" viewBox="0 0 165 169" fill="none" xmlns="http://www.w3.org/2000/svg">
<path d="M61.8924 115.294C74.8426 126.16 83.9033 135.095 79.8425 138.347C76.9447 141.801 72.3449 130.724 59.3947 119.858C46.4445 108.991 -2.69068 125.592 0.207053 122.139C3.10479 118.686 48.9422 104.427 61.8924 115.294Z" fill="#415F2F"/>
<path d="M65.8508 110.211C78.2416 125.512 86.9916 137.436 83.5091 138.726C81.0926 140.683 76.2548 128.65 63.8639 113.349C51.4731 98.0472 7.95941 92.8671 10.3759 90.9102C12.7924 88.9534 53.46 94.9091 65.8508 110.211Z" fill="#415F2F"/>
<path d="M84.7642 90.6743C86.3237 118.255 82.3309 139.431 88.0214 137.93C92.9974 138.104 87.5136 120.182 88.4958 92.0547C89.478 63.9275 63.7272 9.68919 59.1412 5.52712C43.8759 -22.2922 85.7464 62.5471 84.7642 90.6743Z" fill="#415F2F"/>
<path d="M91.925 110.882C88.7428 127.253 87.445 139.749 93.0868 139.82C97.9024 140.756 94.0004 129.301 97.1827 112.929C100.365 96.5582 152.765 79.64 147.949 78.704C143.133 77.7679 95.1073 94.5107 91.925 110.882Z" fill="#415F2F"/>
<path d="M92.6405 91.6652C87.341 118.929 83.8261 139.474 86.4528 138.277C88.4913 138.674 89.328 121.023 94.6275 93.7592C99.927 66.4956 128.413 26.8964 126.375 26.5001C124.336 26.1039 97.94 64.4017 92.6405 91.6652Z" fill="#415F2F"/>
<path d="M93.1374 102.032C88.8734 123.969 84.5481 140.016 88.9877 139.505C92.6834 140.224 90.8359 125.532 95.0999 103.595C99.3639 81.6591 142.089 49.0268 136.724 54.0772C133.028 53.3588 97.4014 80.096 93.1374 102.032Z" fill="#415F2F"/>
<path d="M75.7963 102.308C77.4448 119.653 86.236 139.237 81.5261 139.039C77.5195 139.746 73.2144 118.821 70.3026 102.308C67.3908 85.7941 14.8248 72.7031 18.8315 71.9966C22.8381 71.2902 72.8845 85.794 75.7963 102.308Z" fill="#415F2F"/>
<path d="M81.5261 76.0779C83.1747 93.4235 88.3765 136.921 83.6666 136.724C79.66 137.43 78.9442 92.5916 76.0324 76.078C73.1206 59.5643 24.5613 45.7669 24.5613 45.7669C28.5679 45.0604 78.6143 59.5643 81.5261 76.0779Z" fill="#415F2F"/>
<path d="M100.059 111.651C90.5756 122.953 84.3803 132.206 89.5552 135.385C93.6222 138.798 94.6057 127.497 104.09 116.195C113.573 104.892 168.669 120.398 164.602 116.985C160.535 113.573 109.543 100.348 100.059 111.651Z" fill="#415F2F"/>
<path d="M38.7723 128.561L85.7073 135.703L134.683 128.561L111.215 157.13H62.2398L38.7723 128.561Z" fill="#99A0E2"/>
<path d="M61.8924 115.294C74.8426 126.16 83.9033 135.095 79.8425 138.347C76.9447 141.801 72.3449 130.724 59.3947 119.858C46.4445 108.991 -2.69068 125.592 0.207053 122.139C3.10479 118.686 48.9422 104.427 61.8924 115.294Z" fill="#415F2F"/>
<path d="M65.8508 110.211C78.2416 125.512 86.9916 137.436 83.5091 138.726C81.0926 140.683 76.2548 128.65 63.8639 113.349C51.4731 98.0472 7.95941 92.8671 10.3759 90.9102C12.7924 88.9534 53.46 94.9091 65.8508 110.211Z" fill="#415F2F"/>
<path d="M84.7642 90.6743C86.3237 118.255 82.3309 139.431 88.0214 137.93C92.9974 138.104 87.5136 120.182 88.4958 92.0547C89.478 63.9275 63.7272 9.68919 59.1412 5.52712C43.8759 -22.2922 85.7464 62.5471 84.7642 90.6743Z" fill="#415F2F"/>
<path d="M91.925 110.882C88.7428 127.253 87.445 139.749 93.0868 139.82C97.9024 140.756 94.0004 129.301 97.1827 112.929C100.365 96.5582 152.765 79.64 147.949 78.704C143.133 77.7679 95.1073 94.5107 91.925 110.882Z" fill="#415F2F"/>
<path d="M92.6405 91.6652C87.341 118.929 83.8261 139.474 86.4528 138.277C88.4913 138.674 89.328 121.023 94.6275 93.7592C99.927 66.4956 128.413 26.8964 126.375 26.5001C124.336 26.1039 97.94 64.4017 92.6405 91.6652Z" fill="#415F2F"/>
<path d="M93.1374 102.032C88.8734 123.969 84.5481 140.016 88.9877 139.505C92.6834 140.224 90.8359 125.532 95.0999 103.595C99.3639 81.6591 142.089 49.0268 136.724 54.0772C133.028 53.3588 97.4014 80.096 93.1374 102.032Z" fill="#415F2F"/>
<path d="M75.7963 102.308C77.4448 119.653 86.236 139.237 81.5261 139.039C77.5195 139.746 73.2144 118.821 70.3026 102.308C67.3908 85.7941 14.8248 72.7031 18.8315 71.9966C22.8381 71.2902 72.8845 85.794 75.7963 102.308Z" fill="#415F2F"/>
<path d="M81.5261 76.0779C83.1747 93.4235 88.3765 136.921 83.6666 136.724C79.66 137.43 78.9442 92.5916 76.0324 76.078C73.1206 59.5643 24.5613 45.7669 24.5613 45.7669C28.5679 45.0604 78.6143 59.5643 81.5261 76.0779Z" fill="#415F2F"/>
<path d="M100.059 111.651C90.5756 122.953 84.3803 132.206 89.5552 135.385C93.6222 138.798 94.6057 127.497 104.09 116.195C113.573 104.892 168.669 120.398 164.602 116.985C160.535 113.573 109.543 100.348 100.059 111.651Z" fill="#415F2F"/>
<path d="M38.7723 128.561L85.7073 135.703L134.683 128.561L111.215 157.13H62.2398L38.7723 128.561Z" fill="#99A0E2"/>
</svg>
