<svg width="165" height="122" viewBox="0 0 165 122" fill="none" xmlns="http://www.w3.org/2000/svg">
<path d="M61.8924 68.2938C74.8426 79.1603 83.9033 88.0951 79.8425 91.3473C76.9447 94.8007 72.3449 83.7242 59.3947 72.8577C46.4445 61.9912 -2.69068 78.5924 0.207053 75.139C3.10479 71.6857 48.9422 57.4272 61.8924 68.2938Z" fill="#415F2F"/>
<path d="M65.8508 63.2105C78.2416 78.5119 86.9916 90.4355 83.5091 91.7265C81.0926 93.6833 76.2548 81.65 63.8639 66.3486C51.4731 51.0472 7.95941 45.8671 10.3759 43.9102C12.7924 41.9534 53.46 47.9092 65.8508 63.2105Z" fill="#415F2F"/>
<path d="M91.925 63.8821C88.7428 80.2534 87.445 92.7487 93.0868 92.8199C97.9024 93.756 94.0004 82.3008 97.1827 65.9295C100.365 49.5582 152.765 32.6401 147.949 31.704C143.133 30.7679 95.1073 47.5108 91.925 63.8821Z" fill="#415F2F"/>
<path d="M93.1374 55.0324C88.8734 76.9687 84.5481 93.0164 88.9877 92.5054C92.6834 93.2237 90.8359 78.5318 95.0999 56.5954C99.3639 34.6591 142.089 2.02682 136.724 7.07717C133.028 6.35879 97.4014 33.096 93.1374 55.0324Z" fill="#415F2F"/>
<path d="M100.059 64.6506C90.5756 75.953 84.3803 85.2056 89.5552 88.3854C93.6222 91.798 94.6057 80.4972 104.09 69.1948C113.573 57.8924 168.669 73.3979 164.602 69.9852C160.535 66.5726 109.543 53.3483 100.059 64.6506Z" fill="#415F2F"/>
<path d="M38.7723 81.5609L85.7073 88.7032L134.683 81.5609L111.215 110.13H62.2398L38.7723 81.5609Z" fill="#99A0E2"/>
</svg>
