<svg width="206" height="281" viewBox="0 0 206 281" fill="none" xmlns="http://www.w3.org/2000/svg">
<g style="mix-blend-mode:darken" filter="url(#filter0_d_4_288)">
<path d="M69.5271 123.481C68.8596 125.832 63.2854 126.264 58.2414 124.693C49.7331 122.041 42.2527 112.326 54.8304 128.001C56.5568 130.152 66.7958 132.874 60.7668 140.545C59.5454 142.099 57.462 144.677 55.1526 147.483C54.5915 148.164 35.246 116.039 53.4385 149.556C52.8641 150.248 52.2855 150.942 51.7117 151.627C48.8195 155.077 46.0484 158.291 44.5414 159.837C38.8585 165.665 33.5996 169.832 30.4457 170.428C29.2581 170.653 24.5103 164.22 20.6165 155.144C19.7312 153.081 18.8901 150.881 18.145 148.592C54.3265 123.09 17.043 145.686 16.8308 144.025C16.251 139.487 16.07 134.545 15.2514 130.955C34.8826 126.906 44.1693 114.199 14.2497 118.882C13.8634 111.408 14.8436 105.624 19.0213 104.129C36.8165 103.808 43.1164 105.486 23.1126 95.099C35.3027 71.9698 42.6158 90.785 50.4183 97.0996C50.6466 97.2843 50.8804 97.4508 51.1192 97.6004C60.0467 103.194 75.9912 85.2675 70.995 117.969C58.532 110.37 51.7936 108.507 52.7245 110.574C54.1781 113.801 70.1867 120.449 69.5271 123.481Z" fill="url(#paint0_linear_4_288)" shape-rendering="crispEdges"/>
</g>
<g filter="url(#filter1_d_4_288)">
<path d="M145.164 137.416C146.217 138.971 148.717 140.87 145.299 143.061C139.533 146.756 127.568 144.319 143.009 144.667C145.128 144.715 150.261 144.979 151.795 152.319C152.105 153.806 152.593 156.306 153.102 159.052C153.226 159.719 124.761 155.222 153.475 161.085C153.598 161.765 153.72 162.449 153.839 163.125C154.44 166.532 154.961 169.752 155.126 171.402C155.746 177.627 155.598 182.781 154.39 184.931C153.935 185.741 147.803 185.355 140.538 183.16C138.886 182.661 137.176 182.068 135.461 181.375C138.341 147.48 135.286 181.189 134.204 180.493C131.247 178.591 121.168 170.703 118.65 169.41C125.972 155.858 128.089 149.061 116.054 168.981C111.465 165.513 106.605 157.13 107.791 153.933C108.977 150.737 122.441 145.374 106.442 152.01C98.8583 133.404 116.87 143.72 124.443 142.25C124.237 142.317 124.664 142.207 124.443 142.25C132.147 139.762 126.796 116.036 143.567 135.141C132.935 138.718 136.45 137.234 138.126 137.708C140.744 138.449 143.706 135.53 145.164 137.416Z" fill="url(#paint1_linear_4_288)" shape-rendering="crispEdges"/>
</g>
<path d="M79.8035 98.0188C79.8035 129.775 85.4081 154.519 84.3035 154.519C83.1989 154.519 75.8035 129.775 75.8035 98.0188C75.8035 66.2624 49.1989 98.0188 50.3035 98.0188C51.4081 98.0188 79.8035 66.2624 79.8035 98.0188Z" fill="#D9D9D9"/>
<g style="mix-blend-mode:multiply">
<path d="M93.3035 86.5188C93.3035 118.827 90.6319 155.019 89.8035 155.019C88.9751 155.019 89.8035 92.8274 89.8035 60.5188C89.8035 44.7205 94.2269 37.4859 98.9816 34.0188C103.951 30.3954 109.281 30.8868 110.303 30.0187C115.287 28.5236 133.982 18.0319 98.9816 37.0188C92.5254 44.8107 89.5414 59.6822 93.3035 86.5188Z" fill="#D9D9D9"/>
</g>
<g style="mix-blend-mode:darken" filter="url(#filter2_d_4_288)">
<path d="M137.222 1.47386C139.944 1.5974 141.838 7.53711 141.422 13.4136C140.719 23.3262 125.505 42.1774 139.304 24.5187C141.197 22.0949 148.115 2.03748 157.982 6.62043C159.981 7.54886 163.312 9.15104 166.948 10.9405C167.831 11.3752 137.908 40.5845 169.636 12.2709C170.534 12.7175 183.202 16.5709 184.091 17.0187C188.576 19.276 167.573 25.7781 169.636 27.0187C177.415 31.6971 201.547 22.1212 203 25.3918C203.548 26.6233 192.947 39.921 184.091 46.4672C182.078 47.9555 179.905 49.4308 177.611 50.8248C140.682 18.0725 171.384 52.8639 169.636 53.5187C164.859 55.3082 155.491 57.3006 151.803 59.1068C142.391 38.8344 133.629 31.3697 146.36 62.6472C138.346 64.977 131.818 65.3916 129.128 61.2391C124.23 42.0065 124.441 34.7399 118.281 59.1068C90.0604 51.788 107.444 41.6017 112.303 31.5187C112.446 31.2238 113.735 28.3668 113.837 28.0693C117.626 16.9496 94.0928 4.22596 130.864 1.28976C125.802 16.7593 122.298 26.0575 124.303 24.5187C127.435 22.1159 133.762 1.53292 137.222 1.47386Z" fill="url(#paint2_linear_4_288)" fill-opacity="0.78" shape-rendering="crispEdges"/>
</g>
<g style="mix-blend-mode:darken">
<path d="M122.441 110.227C100.53 129.627 92.1046 155.9 91.7581 155.509C91.4117 155.118 99.0661 127.974 120.977 108.573C142.889 89.173 119.501 149.829 128.932 142.875C111.855 155.467 144.352 90.8261 122.441 110.227Z" fill="#D9D9D9"/>
</g>
<g style="mix-blend-mode:darken">
<path d="M43.3035 155.019H133.303L115.303 280.019H61.8035L43.3035 155.019Z" fill="#E7DF9C"/>
</g>
<g style="mix-blend-mode:darken" filter="url(#filter3_d_4_288)">
<path d="M69.5271 123.481C68.8596 125.832 63.2854 126.264 58.2414 124.693C49.7331 122.041 42.2527 112.326 54.8304 128.001C56.5568 130.152 66.7958 132.874 60.7668 140.545C59.5454 142.099 57.462 144.677 55.1526 147.483C54.5915 148.164 35.246 116.039 53.4385 149.556C52.8641 150.248 52.2855 150.942 51.7117 151.627C48.8195 155.077 46.0484 158.291 44.5414 159.837C38.8585 165.665 33.5996 169.832 30.4457 170.428C29.2581 170.653 24.5103 164.22 20.6165 155.144C19.7312 153.081 18.8901 150.881 18.145 148.592C54.3265 123.09 17.043 145.686 16.8308 144.025C16.251 139.487 16.07 134.545 15.2514 130.955C34.8826 126.906 44.1693 114.199 14.2497 118.882C13.8634 111.408 14.8436 105.624 19.0213 104.129C36.8165 103.808 43.1164 105.486 23.1126 95.099C35.3027 71.9698 42.6158 90.785 50.4183 97.0996C50.6466 97.2843 50.8804 97.4508 51.1192 97.6004C60.0467 103.194 75.9912 85.2675 70.995 117.969C58.532 110.37 51.7936 108.507 52.7245 110.574C54.1781 113.801 70.1867 120.449 69.5271 123.481Z" fill="url(#paint3_linear_4_288)" shape-rendering="crispEdges"/>
</g>
<g filter="url(#filter4_d_4_288)">
<path d="M145.164 137.416C146.217 138.971 148.717 140.87 145.299 143.061C139.533 146.756 127.568 144.319 143.009 144.667C145.128 144.715 150.261 144.979 151.795 152.319C152.105 153.806 152.593 156.306 153.102 159.052C153.226 159.719 124.761 155.222 153.475 161.085C153.598 161.765 153.72 162.449 153.839 163.125C154.44 166.532 154.961 169.752 155.126 171.402C155.746 177.627 155.598 182.781 154.39 184.931C153.935 185.741 147.803 185.355 140.538 183.16C138.886 182.661 137.176 182.068 135.461 181.375C138.341 147.48 135.286 181.189 134.204 180.493C131.247 178.591 121.168 170.703 118.65 169.41C125.972 155.858 128.089 149.061 116.054 168.981C111.465 165.513 106.605 157.13 107.791 153.933C108.977 150.737 122.441 145.374 106.442 152.01C98.8583 133.404 116.87 143.72 124.443 142.25C124.237 142.317 124.664 142.207 124.443 142.25C132.147 139.762 126.796 116.036 143.567 135.141C132.935 138.718 136.45 137.234 138.126 137.708C140.744 138.449 143.706 135.53 145.164 137.416Z" fill="url(#paint4_linear_4_288)" shape-rendering="crispEdges"/>
</g>
<path d="M79.8035 98.0188C79.8035 129.775 85.4081 154.519 84.3035 154.519C83.1989 154.519 75.8035 129.775 75.8035 98.0188C75.8035 66.2624 49.1989 98.0188 50.3035 98.0188C51.4081 98.0188 79.8035 66.2624 79.8035 98.0188Z" fill="#D9D9D9"/>
<g style="mix-blend-mode:multiply">
<path d="M93.3035 86.5188C93.3035 118.827 90.6319 155.019 89.8035 155.019C88.9751 155.019 89.8035 92.8274 89.8035 60.5188C89.8035 44.7205 94.2269 37.4859 98.9816 34.0188C103.951 30.3954 109.281 30.8868 110.303 30.0187C115.287 28.5236 133.982 18.0319 98.9816 37.0188C92.5254 44.8107 89.5414 59.6822 93.3035 86.5188Z" fill="#D9D9D9"/>
</g>
<g style="mix-blend-mode:darken" filter="url(#filter5_d_4_288)">
<path d="M137.222 1.47386C139.944 1.5974 141.838 7.53711 141.422 13.4136C140.719 23.3262 125.505 42.1774 139.304 24.5187C141.197 22.0949 148.115 2.03748 157.982 6.62043C159.981 7.54886 163.312 9.15104 166.948 10.9405C167.831 11.3752 137.908 40.5845 169.636 12.2709C170.534 12.7175 183.202 16.5709 184.091 17.0187C188.576 19.276 167.573 25.7781 169.636 27.0187C177.415 31.6971 201.547 22.1212 203 25.3918C203.548 26.6233 192.947 39.921 184.091 46.4672C182.078 47.9555 179.905 49.4308 177.611 50.8248C140.682 18.0725 171.384 52.8639 169.636 53.5187C164.859 55.3082 155.491 57.3006 151.803 59.1068C142.391 38.8344 133.629 31.3697 146.36 62.6472C138.346 64.977 131.818 65.3916 129.128 61.2391C124.23 42.0065 124.441 34.7399 118.281 59.1068C90.0604 51.788 107.444 41.6017 112.303 31.5187C112.446 31.2238 113.735 28.3668 113.837 28.0693C117.626 16.9496 94.0928 4.22596 130.864 1.28976C125.802 16.7593 122.298 26.0575 124.303 24.5187C127.435 22.1159 133.762 1.53292 137.222 1.47386Z" fill="url(#paint5_linear_4_288)" fill-opacity="0.78" shape-rendering="crispEdges"/>
</g>
<g style="mix-blend-mode:darken">
<path d="M122.441 110.227C100.53 129.627 92.1046 155.9 91.7581 155.509C91.4117 155.118 99.0661 127.974 120.977 108.573C142.889 89.173 119.501 149.829 128.932 142.875C111.855 155.467 144.352 90.8261 122.441 110.227Z" fill="#D9D9D9"/>
</g>
<g style="mix-blend-mode:darken">
<path d="M43.3035 155.019H133.303L115.303 280.019H61.8035L43.3035 155.019Z" fill="#E6A861"/>
</g>
<defs>
<filter id="filter0_d_4_288" x="11.8435" y="83.8873" width="62.4286" height="91.2044" filterUnits="userSpaceOnUse" color-interpolation-filters="sRGB">
<feFlood flood-opacity="0" result="BackgroundImageFix"/>
<feColorMatrix in="SourceAlpha" type="matrix" values="0 0 0 0 0 0 0 0 0 0 0 0 0 0 0 0 0 0 127 0" result="hardAlpha"/>
<feOffset dy="2.32885"/>
<feGaussianBlur stdDeviation="1.16443"/>
<feComposite in2="hardAlpha" operator="out"/>
<feColorMatrix type="matrix" values="0 0 0 0 0 0 0 0 0 0 0 0 0 0 0 0 0 0 0.25 0"/>
<feBlend mode="normal" in2="BackgroundImageFix" result="effect1_dropShadow_4_288"/>
<feBlend mode="normal" in="SourceGraphic" in2="effect1_dropShadow_4_288" result="shape"/>
</filter>
<filter id="filter1_d_4_288" x="102.826" y="127.76" width="54.4472" height="61.1412" filterUnits="userSpaceOnUse" color-interpolation-filters="sRGB">
<feFlood flood-opacity="0" result="BackgroundImageFix"/>
<feColorMatrix in="SourceAlpha" type="matrix" values="0 0 0 0 0 0 0 0 0 0 0 0 0 0 0 0 0 0 127 0" result="hardAlpha"/>
<feOffset dy="1.78967"/>
<feGaussianBlur stdDeviation="0.894835"/>
<feComposite in2="hardAlpha" operator="out"/>
<feColorMatrix type="matrix" values="0 0 0 0 0 0 0 0 0 0 0 0 0 0 0 0 0 0 0.25 0"/>
<feBlend mode="normal" in2="BackgroundImageFix" result="effect1_dropShadow_4_288"/>
<feBlend mode="normal" in="SourceGraphic" in2="effect1_dropShadow_4_288" result="shape"/>
</filter>
<filter id="filter2_d_4_288" x="99.9523" y="1.28976" width="105.665" height="68.2924" filterUnits="userSpaceOnUse" color-interpolation-filters="sRGB">
<feFlood flood-opacity="0" result="BackgroundImageFix"/>
<feColorMatrix in="SourceAlpha" type="matrix" values="0 0 0 0 0 0 0 0 0 0 0 0 0 0 0 0 0 0 127 0" result="hardAlpha"/>
<feOffset dy="2.59687"/>
<feGaussianBlur stdDeviation="1.29843"/>
<feComposite in2="hardAlpha" operator="out"/>
<feColorMatrix type="matrix" values="0 0 0 0 0 0 0 0 0 0 0 0 0 0 0 0 0 0 0.25 0"/>
<feBlend mode="normal" in2="BackgroundImageFix" result="effect1_dropShadow_4_288"/>
<feBlend mode="normal" in="SourceGraphic" in2="effect1_dropShadow_4_288" result="shape"/>
</filter>
<filter id="filter3_d_4_288" x="11.8435" y="83.8873" width="62.4286" height="91.2044" filterUnits="userSpaceOnUse" color-interpolation-filters="sRGB">
<feFlood flood-opacity="0" result="BackgroundImageFix"/>
<feColorMatrix in="SourceAlpha" type="matrix" values="0 0 0 0 0 0 0 0 0 0 0 0 0 0 0 0 0 0 127 0" result="hardAlpha"/>
<feOffset dy="2.32885"/>
<feGaussianBlur stdDeviation="1.16443"/>
<feComposite in2="hardAlpha" operator="out"/>
<feColorMatrix type="matrix" values="0 0 0 0 0 0 0 0 0 0 0 0 0 0 0 0 0 0 0.25 0"/>
<feBlend mode="normal" in2="BackgroundImageFix" result="effect1_dropShadow_4_288"/>
<feBlend mode="normal" in="SourceGraphic" in2="effect1_dropShadow_4_288" result="shape"/>
</filter>
<filter id="filter4_d_4_288" x="102.826" y="127.76" width="54.4472" height="61.1412" filterUnits="userSpaceOnUse" color-interpolation-filters="sRGB">
<feFlood flood-opacity="0" result="BackgroundImageFix"/>
<feColorMatrix in="SourceAlpha" type="matrix" values="0 0 0 0 0 0 0 0 0 0 0 0 0 0 0 0 0 0 127 0" result="hardAlpha"/>
<feOffset dy="1.78967"/>
<feGaussianBlur stdDeviation="0.894835"/>
<feComposite in2="hardAlpha" operator="out"/>
<feColorMatrix type="matrix" values="0 0 0 0 0 0 0 0 0 0 0 0 0 0 0 0 0 0 0.25 0"/>
<feBlend mode="normal" in2="BackgroundImageFix" result="effect1_dropShadow_4_288"/>
<feBlend mode="normal" in="SourceGraphic" in2="effect1_dropShadow_4_288" result="shape"/>
</filter>
<filter id="filter5_d_4_288" x="99.9523" y="1.28976" width="105.665" height="68.2924" filterUnits="userSpaceOnUse" color-interpolation-filters="sRGB">
<feFlood flood-opacity="0" result="BackgroundImageFix"/>
<feColorMatrix in="SourceAlpha" type="matrix" values="0 0 0 0 0 0 0 0 0 0 0 0 0 0 0 0 0 0 127 0" result="hardAlpha"/>
<feOffset dy="2.59687"/>
<feGaussianBlur stdDeviation="1.29843"/>
<feComposite in2="hardAlpha" operator="out"/>
<feColorMatrix type="matrix" values="0 0 0 0 0 0 0 0 0 0 0 0 0 0 0 0 0 0 0.25 0"/>
<feBlend mode="normal" in2="BackgroundImageFix" result="effect1_dropShadow_4_288"/>
<feBlend mode="normal" in="SourceGraphic" in2="effect1_dropShadow_4_288" result="shape"/>
</filter>
<linearGradient id="paint0_linear_4_288" x1="-112.348" y1="41.9181" x2="-138.377" y2="133.597" gradientUnits="userSpaceOnUse">
<stop stop-color="#7AC04F" stop-opacity="0.72"/>
<stop offset="1" stop-color="#1B2D0F" stop-opacity="0.96"/>
</linearGradient>
<linearGradient id="paint1_linear_4_288" x1="20.1095" y1="191.837" x2="61.1858" y2="252.472" gradientUnits="userSpaceOnUse">
<stop stop-color="#1B2D0F" stop-opacity="0.96"/>
<stop offset="1" stop-color="#B8FB8F" stop-opacity="0.72"/>
</linearGradient>
<linearGradient id="paint2_linear_4_288" x1="95.185" y1="219.728" x2="201.346" y2="224.545" gradientUnits="userSpaceOnUse">
<stop stop-color="#1B2D0F" stop-opacity="0.96"/>
<stop offset="1" stop-color="#7AC04F" stop-opacity="0.72"/>
</linearGradient>
<linearGradient id="paint3_linear_4_288" x1="-112.348" y1="41.9181" x2="-138.377" y2="133.597" gradientUnits="userSpaceOnUse">
<stop stop-color="#7AC04F" stop-opacity="0.72"/>
<stop offset="1" stop-color="#1B2D0F" stop-opacity="0.96"/>
</linearGradient>
<linearGradient id="paint4_linear_4_288" x1="20.1095" y1="191.837" x2="61.1858" y2="252.472" gradientUnits="userSpaceOnUse">
<stop stop-color="#1B2D0F" stop-opacity="0.96"/>
<stop offset="1" stop-color="#B8FB8F" stop-opacity="0.72"/>
</linearGradient>
<linearGradient id="paint5_linear_4_288" x1="95.185" y1="219.728" x2="201.346" y2="224.545" gradientUnits="userSpaceOnUse">
<stop stop-color="#1B2D0F" stop-opacity="0.96"/>
<stop offset="1" stop-color="#7AC04F" stop-opacity="0.72"/>
</linearGradient>
</defs>
</svg>
