<svg width="268" height="305" viewBox="0 0 268 305" fill="none" xmlns="http://www.w3.org/2000/svg">
<path d="M127.955 227.621C127.955 231.075 103.806 217.038 69.2689 217.038C35.1155 213.671 0 207.985 0 204.531C0 201.078 34.7321 204.531 69.2689 204.531C103.806 204.531 127.955 224.167 127.955 227.621Z" fill="#334A24"/>
<path d="M127.955 227.14C127.955 230.594 152.104 217.427 186.641 217.427C220.794 214.06 265.531 231.858 265.531 229.934C277.556 232.247 221.178 200.591 186.641 200.591C152.104 200.591 127.955 223.686 127.955 227.14Z" fill="#43642F"/>
<path d="M126.369 228.013C128.386 230.725 125.836 217.62 135.23 202.843C136.695 197.558 156.595 183.363 159.758 181.011C130.569 190.124 149.069 183.564 135.599 188.772C122.13 193.98 124.353 225.3 126.369 228.013Z" fill="#43642F"/>
<path d="M126.993 227.048C126.993 231.564 104.865 198.667 81.7758 198.667C54.6777 198.667 16.3552 175.764 16.3552 171.248C16.3552 166.732 47.1413 187.603 74.5603 181.831C101.658 181.831 126.993 222.532 126.993 227.048Z" fill="#1F3213"/>
<path d="M161.146 192.059C144.31 206.49 128.611 228.477 125.662 226.648C122.713 224.819 140.533 200.83 151.045 183.882C161.556 166.934 216.204 171.828 219.153 173.657C229.453 173.657 178.026 181.533 161.146 192.059Z" fill="#2B3D20"/>
<g style="mix-blend-mode:multiply">
<path d="M125.069 228.491L113.524 236.188L105.827 235.226L100.055 230.896L82.7378 240.998L81.2947 258.315L66.3827 264.088L57.243 275.151" stroke="#988989" stroke-width="2.8862" stroke-linecap="round"/>
</g>
<path d="M125.732 228.87L128.006 242.558L123.967 249.18L137.817 255.42L137.543 264.224L132.424 281.439L134.077 296.999L141.055 303.267" stroke="#988989" stroke-width="2.8862" stroke-linecap="round"/>
<path d="M126.672 227.251L138.91 222.238L142.867 226.698L147.283 226.698L155.855 229.453L157.298 239.074L164.513 242.441L169.324 247.732L173.911 255.927L180.984 265.827" stroke="#988989" stroke-width="1.92414" stroke-linecap="round"/>
<path d="M124.981 220.656L118.513 209.12L122.458 204.649L121.919 200.266L123.609 191.422L132.982 188.817L135.445 181.245L140.11 175.825L140.11 168.638L146.2 163.347L152.454 161.423L159.188 163.347L164.961 167.676L166.404 172.005" stroke="#988989" stroke-width="1.92414" stroke-linecap="round"/>
<path d="M127.761 228.272L134.347 237.326L138.15 238.831L142.189 245.402L139.917 255.071L150.232 256.471L157.847 262.166L157.981 276.204L152.081 286.701L168.677 299.511" stroke="#7D7171" stroke-width="1.92414" stroke-linecap="round"/>
<path d="M124.773 226.632L126.395 228.153L125.433 234.887L129.281 234.887L132.167 237.774L130.243 243.546L134.572 246.432L135.535 251.243L144.193 252.205L147.56 257.496L147.079 264.712L149.003 270.003L153.635 267.039" stroke="#DFD2D2" stroke-width="1.92414" stroke-linecap="round"/>
<g style="mix-blend-mode:darken">
<path d="M125.419 226.452L122.396 135.51L110.901 91.6686L100.465 68.7194L86.1051 38.0017L61.5723 20.6845" stroke="#1B2D0F" stroke-width="1.92414" stroke-linecap="round"/>
</g>
<path d="M118.218 122.649L107.271 111.6L99.574 106.308L90.9154 104.384L75.5223 102.46H64.9396L56.762 104.384" stroke="#2B3D20" stroke-width="1.92414" stroke-linecap="round"/>
<path d="M113.358 99.031L114.746 86.7477L116.67 74.2409L119.075 67.5064L123.404 62.6961L128.215 58.8478L134.468 54.5185" stroke="#1B2D0F" stroke-opacity="0.96" stroke-width="1.92414" stroke-linecap="round"/>
<path d="M69.1364 25.9992L70.2309 19.7224L71.193 16.8362L72.788 13.8733L73.5178 10.7025L75.696 6.312L78.2412 2.84136L81.4569 1.75676" stroke="#1B2D0F" stroke-opacity="0.96" stroke-width="0.962068" stroke-linecap="round"/>
<path d="M63.3782 9.3732C65.6987 12.5702 64.7912 17.186 61.3512 19.6829C57.9112 22.1799 53.2414 21.6124 50.9209 18.4155C48.6003 15.2185 47.1735 7.38683 50.6135 4.88988C54.0535 2.39292 61.0576 6.17626 63.3782 9.3732Z" fill="url(#paint0_radial_4_290)" fill-opacity="0.74"/>
<path d="M61.3795 19.7219C64.8382 17.2113 65.7552 12.566 63.4171 9.34495C62.2504 7.73763 59.9113 5.98777 57.4342 4.95195C54.9601 3.91736 52.3271 3.58667 50.5853 4.85095C48.8435 6.11523 48.342 8.72115 48.5591 11.3941C48.7764 14.0702 49.7153 16.8364 50.8819 18.4437C53.22 21.6648 57.9207 22.2324 61.3795 19.7219Z" stroke="#9141B7" stroke-opacity="0.74" stroke-width="0.0962068"/>
<path d="M69.2373 7.69858C70.6654 9.3317 71.0234 12.0106 70.6141 14.6522C70.2052 17.2921 69.0347 19.8613 67.4475 21.2645C66.7084 21.9179 66.179 22.1464 65.7664 22.105C65.3583 22.064 65.0259 21.7543 64.6912 21.219C64.4229 20.7898 64.1651 20.2357 63.8705 19.6028C63.7987 19.4486 63.7248 19.2897 63.648 19.1268C63.2576 18.2988 62.7967 17.3753 62.1808 16.4633C62.1458 16.4115 62.0874 16.3606 62.0265 16.3127C61.9801 16.2761 61.9258 16.2364 61.869 16.1949C61.8492 16.1805 61.8292 16.1658 61.8091 16.151C61.6498 16.0337 61.4784 15.9005 61.3517 15.7467C61.2257 15.5937 61.1517 15.4298 61.1695 15.2487C61.1874 15.0663 61.3007 14.8434 61.6007 14.5782L61.5374 14.5058L61.4741 14.4333C61.2502 14.6313 61.0749 14.7698 60.9387 14.8611C60.8 14.9542 60.711 14.992 60.658 15.0004C60.6333 15.0043 60.6232 15.0007 60.621 14.9997L60.6209 14.9996C60.6198 14.9991 60.6168 14.9978 60.6124 14.9892C60.5999 14.965 60.592 14.9138 60.5977 14.8265C60.6031 14.7435 60.6192 14.6448 60.6386 14.5377C60.6434 14.5111 60.6485 14.4839 60.6535 14.4565C60.6686 14.3755 60.6841 14.2921 60.6958 14.2133C60.7115 14.1082 60.722 14.0029 60.7148 13.9133C60.708 13.8274 60.683 13.7286 60.6002 13.6717C59.947 13.2224 59.2023 12.7758 58.4582 12.3296C58.2898 12.2286 58.1214 12.1276 57.9541 12.0266C57.0455 11.4781 56.1691 10.9293 55.4833 10.3709C54.7945 9.81002 54.3146 9.25251 54.1745 8.69145C54.038 8.14432 54.2194 7.56676 54.9245 6.94335C56.507 5.54434 59.3614 4.90354 62.1965 5.03367C65.0319 5.16382 67.8072 6.06312 69.2373 7.69858Z" fill="url(#paint1_linear_4_290)" fill-opacity="0.74" stroke="#822378" stroke-width="0.192414"/>
<path d="M61.7426 25.5851C62.6014 25.0995 62.99 24.6737 63.0853 24.2703C63.1794 23.8713 62.9948 23.4563 62.5974 22.9657C62.2788 22.5724 61.8387 22.1482 61.3359 21.6636C61.2134 21.5456 61.0872 21.4239 60.9581 21.2983C60.3021 20.6597 59.5786 19.9234 58.9165 19.0442C58.879 18.9943 58.8498 18.9225 58.8243 18.8494C58.8048 18.7937 58.785 18.7293 58.7642 18.6622C58.757 18.6388 58.7496 18.6151 58.7422 18.5913C58.6831 18.4025 58.613 18.1972 58.5087 18.0274C58.405 17.8585 58.2742 17.7351 58.0971 17.693C57.9187 17.6505 57.6709 17.6849 57.3223 17.882L57.2744 17.7986L57.2265 17.7151C57.4866 17.5681 57.6748 17.4475 57.8056 17.3486C57.9388 17.2479 58.0035 17.1761 58.0287 17.1287C58.0405 17.1066 58.0403 17.0959 58.0401 17.0935L58.0401 17.0934C58.04 17.0922 58.0397 17.0889 58.0331 17.082C58.0142 17.0623 57.9683 17.0382 57.8839 17.0151C57.8036 16.9932 57.7051 16.9762 57.5974 16.9597C57.5706 16.9556 57.5433 16.9515 57.5157 16.9473C57.4342 16.9352 57.3502 16.9226 57.2718 16.9081C57.1674 16.8887 57.0644 16.8643 56.9819 16.8283C56.9029 16.7939 56.8175 16.738 56.7906 16.6413C56.2721 14.7748 55.5834 12.6756 54.6116 11.2803C54.1261 10.5832 53.5769 10.0721 52.9528 9.84746C52.3335 9.62451 51.6251 9.67826 50.8053 10.1418C49.4437 10.9116 48.3823 12.1158 47.5295 13.9758C47.2064 14.6806 47.255 15.2588 47.3682 15.867C47.3871 15.9687 47.4079 16.0715 47.4291 16.176C47.5346 16.6964 47.6488 17.2598 47.577 17.9332C47.5454 18.2302 47.5079 18.5005 47.4732 18.7507C47.4531 18.8958 47.434 19.0341 47.4174 19.1669C47.3719 19.5318 47.3449 19.8637 47.3658 20.2102C47.4076 20.9003 47.6409 21.6619 48.3269 22.8574C49.4348 24.788 51.4643 25.1686 54.2124 25.6134C54.3012 25.6278 54.3907 25.6423 54.4809 25.657C55.6986 25.8548 57.0324 26.0716 58.2833 26.1329C59.6295 26.1988 60.8613 26.0833 61.7426 25.5851Z" fill="url(#paint2_linear_4_290)" fill-opacity="0.74" stroke="#822378" stroke-width="0.192414"/>
<path d="M61.0696 17.9696C61.2207 18.0824 61.4271 17.9327 61.3666 17.754L61.3636 17.745C61.3592 17.7321 61.3562 17.7188 61.3546 17.7053L61.2264 16.6183C61.2213 16.5745 61.2214 16.5302 61.2268 16.4864L61.3571 15.4328V15.4328C61.381 15.2397 61.1522 15.1207 61.0078 15.2512L60.034 16.1308C60.0049 16.157 59.9732 16.1801 59.9392 16.1996L58.8012 16.8529C58.6324 16.9498 58.6747 17.2042 58.8657 17.2413V17.2413L60.094 17.6234L61.0173 17.9419C61.036 17.9484 61.0537 17.9577 61.0696 17.9696V17.9696Z" fill="white"/>
<path d="M64.886 22.906C64.8941 22.7511 65.023 22.6302 65.1781 22.6319V22.6319C65.3964 22.6344 65.5386 22.4033 65.438 22.2095L65.0733 21.507C65.0422 21.4471 65.0021 21.3923 64.9544 21.3445L64.8124 21.2022C64.6088 20.9981 64.5608 20.6855 64.6938 20.4297L64.8706 20.0894V20.0894C64.9481 19.914 64.7406 19.7509 64.5884 19.8675L64.0107 20.3103C63.9777 20.3356 63.9491 20.3663 63.9262 20.4012L63.5109 21.0333C63.458 21.1138 63.3882 21.1818 63.3063 21.2325L62.5216 21.7186C62.4755 21.7472 62.4396 21.7897 62.4192 21.8399L62.1153 22.5868C62.0772 22.6805 62.1951 22.7588 62.2667 22.6874V22.6874C62.2739 22.6802 62.2822 22.6743 62.2914 22.6698L62.6526 22.493C62.8707 22.3863 63.1298 22.4076 63.3275 22.5486L63.833 22.9089C63.8598 22.928 63.8881 22.9451 63.9175 22.9601L64.4136 23.2119C64.6228 23.3181 64.872 23.1739 64.8842 22.9396L64.886 22.906Z" fill="#4A1434"/>
<path d="M58.1957 19.3834L58.1607 18.3168L58.2913 19.2221L58.2947 19.2457L58.3087 19.2649L59.2287 20.5324L59.7356 21.2307L60.01 22.2004L60.0197 22.2344L60.049 22.2541L60.9002 22.8251L60.9062 22.8292L60.9128 22.8323L61.5532 23.1332L62.3039 24.1675L59.847 22.3544L59.1088 20.6453L59.1046 20.6355L59.0984 20.6269L58.1957 19.3834Z" fill="white" stroke="#B4A41C" stroke-width="0.192414"/>
<path d="M62.6093 17.3685L61.606 17.0048L62.4263 17.4095L62.4477 17.42L62.4616 17.4392L63.3816 18.7067L63.8885 19.405L64.7255 19.9665L64.7548 19.9862L64.7645 20.0202L65.0436 21.0064L65.0456 21.0134L65.0465 21.0206L65.1342 21.7227L65.8849 22.757L64.9224 19.8592L63.5262 18.6278L63.5182 18.6207L63.5119 18.6121L62.6093 17.3685Z" fill="white" stroke="#B4A41C" stroke-width="0.192414"/>
<g style="mix-blend-mode:multiply">
<path d="M59.4657 18.723C61.909 20.9973 63.2709 23.0447 64.1309 22.4205C64.9909 21.7962 62.6411 20.368 61.8014 17.0275C61.3455 16.6254 61.1393 16.1028 60.7071 15.7979C59.0511 14.6295 57.9214 13.8659 57.3492 13.0775C57.3525 14.087 57.6058 16.1607 59.4657 18.723ZM60.7633 17.7811C61.3338 18.5671 62.7109 19.9093 62.4471 20.1008C62.1833 20.2923 61.1978 18.3797 60.2856 18.1278C59.9761 17.2425 58.8157 15.6529 59.0795 15.4614C59.3433 15.2699 60.2356 17.0541 60.7633 17.7811Z" fill="url(#paint3_linear_4_290)" fill-opacity="0.76"/>
</g>
<path d="M85.7443 26.2948C87.2642 30.1653 84.888 34.7199 80.4369 36.4679C75.9857 38.2158 71.1453 36.495 69.6253 32.6245C68.1054 28.7539 68.9527 20.3058 73.4038 18.5579C77.855 16.81 84.2244 22.4242 85.7443 26.2948Z" fill="url(#paint4_radial_4_290)" fill-opacity="0.74"/>
<path d="M80.4545 36.5126C84.9242 34.7574 87.3209 30.1781 85.7891 26.2772C85.0248 24.331 83.0453 21.953 80.7012 20.2803C78.3589 18.6088 75.6354 17.6299 73.3863 18.5131C71.1371 19.3964 69.8074 21.9669 69.2283 24.7855C68.6488 27.6063 68.8163 30.6959 69.5806 32.6421C71.1124 36.543 75.9847 38.2679 80.4545 36.5126Z" stroke="#9141B7" stroke-opacity="0.74" stroke-width="0.0962068"/>
<path d="M85.0902 35.1574C86.3525 38.3721 77.8849 44.7052 73.3178 46.4986C68.7507 48.292 69.8136 44.8668 68.5513 41.6521C67.2889 38.4374 69.9679 34.3775 74.535 32.584C79.1021 30.7906 83.8278 31.9427 85.0902 35.1574Z" fill="url(#paint5_radial_4_290)" fill-opacity="0.74"/>
<path d="M85.0454 35.175C85.3521 35.956 85.0708 36.9367 84.385 38.0075C83.7008 39.0759 82.6217 40.2216 81.3584 41.3247C78.8316 43.5312 75.5776 45.5595 73.3002 46.4538C72.1608 46.9013 71.3819 47.0191 70.8338 46.9029C70.291 46.7879 69.9665 46.4415 69.7392 45.9337C69.521 45.4464 69.3951 44.8169 69.2541 44.1111C69.2473 44.077 69.2404 44.0427 69.2335 44.0083C69.0843 43.2633 68.9134 42.4426 68.596 41.6345C67.9721 40.0456 68.3204 38.2435 69.3972 36.6116C70.474 34.9798 72.2771 33.5223 74.5526 32.6288C76.828 31.7352 79.1411 31.5763 81.0404 32.0394C82.94 32.5025 84.4215 33.5862 85.0454 35.175Z" stroke="#9141B7" stroke-opacity="0.74" stroke-width="0.0962068"/>
<path d="M92.9961 32.0528C94.2585 35.2675 96.4975 37.3961 92.0888 39.1274C87.68 40.8586 78.2931 41.5369 77.0307 38.3222C75.7684 35.1075 78.319 31.098 82.7277 29.3668C87.1364 27.6355 91.7337 28.8381 92.9961 32.0528Z" fill="url(#paint6_radial_4_290)" fill-opacity="0.74"/>
<path d="M92.9513 32.0704C93.1898 32.6777 93.4633 33.2469 93.7196 33.7803C93.8033 33.9545 93.8851 34.1248 93.9633 34.2914C94.2819 34.9702 94.5394 35.5859 94.6215 36.1533C94.7032 36.7178 94.611 37.2327 94.2303 37.7138C93.8476 38.1974 93.1701 38.6511 92.0712 39.0826C89.8735 39.9456 86.4308 40.5473 83.3801 40.5314C81.8549 40.5235 80.4308 40.3612 79.3108 40.0019C78.1893 39.642 77.3832 39.0881 77.0755 38.3046C76.4513 36.7151 76.7682 34.9252 77.7931 33.314C78.818 31.7029 80.5494 30.2738 82.7453 29.4115C84.9412 28.5492 87.1822 28.4183 89.0296 28.9016C90.877 29.3848 92.3271 30.4808 92.9513 32.0704Z" stroke="#822378" stroke-opacity="0.38" stroke-width="0.0962068"/>
<path d="M92.8808 26.2393C93.9428 28.3302 93.5172 31.2587 92.2642 33.9541C91.0124 36.6469 88.9492 39.0748 86.7832 40.1617C85.7756 40.6673 85.1224 40.778 84.6789 40.628C84.2424 40.4803 83.9738 40.0665 83.7717 39.4156C83.6095 38.8932 83.4967 38.2412 83.368 37.4966C83.3366 37.3152 83.3043 37.1283 83.2701 36.9365C83.0962 35.9613 82.8745 34.8673 82.48 33.7463C82.4577 33.683 82.4096 33.6146 82.3579 33.5486C82.3184 33.4982 82.2712 33.4424 82.2218 33.3841C82.2046 33.3638 82.1872 33.3433 82.1698 33.3225C82.0316 33.158 81.8848 32.9735 81.7932 32.7783C81.7024 32.5847 81.6705 32.391 81.7464 32.2006C81.8233 32.0077 82.0189 31.7975 82.4299 31.5912L82.3863 31.5054L82.3428 31.4197C82.0376 31.5728 81.8032 31.6755 81.6256 31.7382C81.4451 31.8019 81.3334 31.8205 81.2695 31.8157C81.2391 31.8134 81.2273 31.8064 81.224 31.8038C81.2222 31.8024 81.219 31.7998 81.2166 31.7889C81.2101 31.7588 81.2176 31.701 81.2506 31.6093C81.282 31.5221 81.3299 31.4212 81.3838 31.3127C81.3973 31.2856 81.4111 31.2581 81.425 31.2302C81.4661 31.1484 81.5083 31.0643 81.545 30.984C81.594 30.8771 81.6372 30.7691 81.6565 30.6735C81.6749 30.5823 81.6778 30.4725 81.6055 30.3921C81.0293 29.7515 80.3523 29.0905 79.6759 28.43C79.5228 28.2805 79.3697 28.131 79.2178 27.9818C78.3928 27.1713 77.603 26.3686 77.0242 25.6039C76.443 24.836 76.0884 24.1239 76.1065 23.493C76.1242 22.8753 76.502 22.3049 77.4671 21.8206C79.6277 20.7364 82.9446 20.781 86.0014 21.6357C89.0596 22.4908 91.8172 24.1454 92.8808 26.2393Z" fill="url(#paint7_linear_4_290)" fill-opacity="0.74" stroke="#822378" stroke-width="0.192414"/>
<path d="M79.2354 43.2943C80.3227 42.9969 80.8827 42.6426 81.1124 42.2345C81.3386 41.8328 81.2622 41.3453 80.9781 40.7259C80.75 40.2287 80.3986 39.6682 79.9972 39.0281C79.8995 38.8721 79.7988 38.7115 79.6962 38.5459C79.1745 37.704 78.609 36.7417 78.1542 35.6438C78.1285 35.5819 78.1186 35.4989 78.113 35.4151C78.1088 35.3512 78.1067 35.2781 78.1045 35.2018C78.1037 35.1752 78.1029 35.1483 78.102 35.1211C78.095 34.9064 78.081 34.6709 78.0189 34.4644C77.9572 34.2597 77.8516 34.0942 77.668 34.0033C77.482 33.9111 77.1962 33.8855 76.7526 34.0068L76.7277 33.9139L76.7029 33.8209C77.0322 33.7309 77.2752 33.6506 77.4492 33.5785C77.6261 33.5052 77.7215 33.4444 77.7659 33.3981C77.787 33.3761 77.7911 33.363 77.7918 33.3588C77.7923 33.3566 77.7929 33.3525 77.7874 33.3428C77.7722 33.316 77.728 33.2781 77.6422 33.2319C77.5606 33.188 77.4576 33.145 77.345 33.1002C77.3169 33.0891 77.2882 33.0778 77.2593 33.0664C77.1741 33.033 77.0865 32.9986 77.0056 32.9634C76.8977 32.9166 76.7936 32.8651 76.7153 32.8069C76.6407 32.7513 76.5653 32.6716 76.5654 32.5635C76.5681 30.4563 76.456 28.0594 75.82 26.3362C75.5023 25.4755 75.0581 24.7944 74.4432 24.3975C73.8317 24.0028 73.0369 23.8801 71.9958 24.1648C70.2698 24.6369 68.741 25.6459 67.2416 27.4011C66.6716 28.0683 66.5484 28.6947 66.4867 29.3672C66.4763 29.4797 66.4678 29.5939 66.459 29.71C66.4156 30.2877 66.3686 30.912 66.0854 31.6057C65.9604 31.9121 65.8372 32.1885 65.7232 32.4445C65.657 32.593 65.5939 32.7346 65.5352 32.8713C65.3742 33.2464 65.2433 33.5913 65.1605 33.964C64.9956 34.7062 65.0183 35.572 65.4031 37.0111C65.714 38.1742 66.3954 38.9848 67.3569 39.6507C68.3221 40.3193 69.5645 40.8389 70.9935 41.4202C71.0862 41.4579 71.1796 41.496 71.2737 41.5343C72.5428 42.0516 73.9337 42.6185 75.2817 42.9998C76.7318 43.4101 78.116 43.6005 79.2354 43.2943Z" fill="url(#paint8_linear_4_290)" fill-opacity="0.74" stroke="#822378" stroke-width="0.192414"/>
<path d="M80.5261 34.7886C80.7063 34.9599 81.0044 34.8428 81.0199 34.5947L81.0209 34.579C81.0225 34.5528 81.0276 34.527 81.0359 34.5021L81.4303 33.3296C81.4451 33.2858 81.4653 33.244 81.4904 33.2053L82.2257 32.0741V32.0741C82.3356 31.905 82.1541 31.6981 81.9721 31.785L80.0366 32.7092C80.013 32.7205 79.9886 32.7301 79.9637 32.7379L77.9164 33.3776C77.7239 33.4378 77.7317 33.7129 77.9273 33.762V33.762L79.3787 34.2995L80.4349 34.7297C80.4687 34.7435 80.4996 34.7635 80.5261 34.7886V34.7886Z" fill="white"/>
<path d="M82.9015 42.3431C83.0169 42.1827 83.2192 42.1098 83.4104 42.1598V42.1598C83.7054 42.237 83.9963 42.0219 84.0089 41.7172L84.0379 41.0166C84.0418 40.9247 84.0264 40.8329 83.9927 40.7473L83.9492 40.6365C83.8362 40.3487 83.9375 40.0211 84.1931 39.8474L84.7379 39.477V39.477C84.8981 39.3565 84.7719 39.1037 84.5793 39.1593L83.5365 39.4601C83.5071 39.4686 83.4789 39.4806 83.4523 39.4958L82.4229 40.0877C82.3629 40.1222 82.2979 40.1471 82.2302 40.1614L80.8329 40.4574C80.794 40.4657 80.7574 40.4828 80.7262 40.5074L79.8593 41.1908C79.7725 41.2592 79.851 41.3961 79.9539 41.3556V41.3556C79.9611 41.3528 79.9685 41.3509 79.9761 41.3499L80.6597 41.2571C80.9062 41.2237 81.1507 41.3313 81.2924 41.5357L81.6385 42.0348C81.6635 42.0707 81.6919 42.1041 81.7234 42.1345L82.0556 42.4542C82.2944 42.684 82.6813 42.6489 82.8749 42.38L82.9015 42.3431Z" fill="#4A1434"/>
<path d="M77.5549 35.6338L77.7634 34.4717L77.6884 35.5075L77.6868 35.5293L77.6948 35.5496L78.3245 37.1532L78.6726 38.0397L78.7297 39.1383L78.7313 39.1703L78.752 39.195L79.4677 40.0509L79.467 40.0515L79.4772 40.0607L80.0471 40.573L80.5636 41.8883L78.5327 39.2441L78.1799 37.2306L78.1782 37.221L78.1747 37.212L77.5549 35.6338Z" fill="white" stroke="#B4A41C" stroke-width="0.192414"/>
<path d="M81.2005 33.4336L81.1959 33.4326L81.2021 33.4345L81.2005 33.4336ZM83.1031 34.4964L81.6234 33.6699L82.798 34.5236L82.8207 34.5402L82.831 34.5663L83.4607 36.1699L83.807 37.0519L84.6179 37.8503L84.6484 37.8804L84.6465 37.9232L84.5947 39.0805L84.5943 39.0887L84.5926 39.0967L84.4181 39.8971L84.9916 41.3577L84.9661 37.7501L83.7325 36.0902L83.7249 36.0799L83.7202 36.068L83.1031 34.4964Z" fill="white" stroke="#B4A41C" stroke-width="0.192414"/>
<g style="mix-blend-mode:multiply">
<path d="M77.9571 35.4172C80.1495 38.0756 80.8914 40.4238 82.54 39.7764C84.1886 39.1291 81.613 37.4158 82.4346 33.6589C82.0118 33.1876 82.0304 32.5958 81.5827 32.2337C79.8672 30.8464 78.6763 29.9373 78.3202 29.0305C77.7038 30.1524 76.7998 32.4701 77.9571 35.4172ZM80.4446 34.4403C80.7996 35.3444 81.998 36.9098 81.4923 37.1084C80.9866 37.307 80.715 35.1289 79.5289 34.7999C79.6188 33.7996 78.8911 31.9709 79.3969 31.7723C79.9026 31.5737 80.1163 33.6043 80.4446 34.4403Z" fill="url(#paint9_linear_4_290)" fill-opacity="0.76"/>
</g>
<g style="mix-blend-mode:darken">
<path d="M104.865 53.8758C104.865 58.6578 100.558 62.5344 95.2447 62.5344C89.9313 62.5344 85.624 58.6578 85.624 53.8758C85.624 49.0938 89.9313 40.4069 95.2447 40.4069C100.558 40.4069 104.865 49.0938 104.865 53.8758Z" fill="url(#paint10_radial_4_290)" fill-opacity="0.74"/>
<path d="M95.2447 62.5825C100.58 62.5825 104.913 58.689 104.913 53.8758C104.913 51.4735 103.833 48.0975 102.088 45.3225C100.345 42.5497 97.9275 40.3588 95.2447 40.3588C92.5619 40.3588 90.1442 42.5497 88.4011 45.3225C86.6567 48.0975 85.5759 51.4735 85.5759 53.8758C85.5759 58.689 89.9097 62.5825 95.2447 62.5825Z" stroke="#9141B7" stroke-opacity="0.74" stroke-width="0.0962068"/>
</g>
<g style="mix-blend-mode:darken">
<path d="M100.055 63.0154C100.055 67.0004 89.0133 70.2309 83.6999 70.2309C78.3866 70.2309 80.8137 67.0004 80.8137 63.0154C80.8137 59.0304 85.1211 55.7999 90.4344 55.7999C95.7478 55.7999 100.055 59.0304 100.055 63.0154Z" fill="url(#paint11_radial_4_290)" fill-opacity="0.74"/>
<path d="M100.007 63.0154C100.007 63.9887 99.3321 64.9254 98.2174 65.786C97.1044 66.6452 95.563 67.4206 93.8529 68.0726C90.4325 69.3768 86.3495 70.1828 83.6999 70.1828C82.3744 70.1828 81.5423 69.9809 81.035 69.6246C80.5317 69.2709 80.3407 68.7593 80.3124 68.1155C80.2853 67.4988 80.4078 66.7686 80.5449 65.9517C80.5515 65.912 80.5582 65.8721 80.565 65.832C80.7095 64.9689 80.8618 64.0162 80.8618 63.0154C80.8618 61.0415 81.9285 59.2507 83.6604 57.9518C85.3923 56.6529 87.7871 55.848 90.4344 55.848C93.0817 55.848 95.4765 56.6529 97.2084 57.9518C98.9403 59.2507 100.007 61.0415 100.007 63.0154Z" stroke="#9141B7" stroke-opacity="0.74" stroke-width="0.0962068"/>
</g>
<g style="mix-blend-mode:darken">
<path d="M109.676 63.0154C109.676 67.0004 111.141 70.2309 105.827 70.2309C100.514 70.2309 90.4344 67.0004 90.4344 63.0154C90.4344 59.0304 94.7417 55.7999 100.055 55.7999C105.368 55.7999 109.676 59.0304 109.676 63.0154Z" fill="url(#paint12_radial_4_290)" fill-opacity="0.74"/>
<path d="M109.628 63.0154C109.628 63.7679 109.68 64.4943 109.729 65.1751C109.745 65.3975 109.76 65.615 109.774 65.8271C109.828 66.6905 109.844 67.4615 109.697 68.1069C109.551 68.7496 109.242 69.2656 108.646 69.6226C108.047 69.9813 107.152 70.1828 105.827 70.1828C103.178 70.1828 99.3361 69.3769 96.1567 68.0731C94.5671 67.4212 93.146 66.646 92.1233 65.7872C91.0995 64.9275 90.4825 63.9906 90.4825 63.0154C90.4825 61.0415 91.5492 59.2507 93.2811 57.9518C95.013 56.6529 97.4078 55.848 100.055 55.848C102.702 55.848 105.097 56.6529 106.829 57.9518C108.561 59.2507 109.628 61.0415 109.628 63.0154Z" stroke="#822378" stroke-opacity="0.38" stroke-width="0.0962068"/>
</g>
<g style="mix-blend-mode:darken">
<path d="M112.288 56.7886C112.539 59.4765 110.895 62.4317 108.488 64.7871C106.083 67.1408 102.941 68.871 100.239 69.1239C98.9839 69.2413 98.2549 69.0861 97.8508 68.7364C97.4513 68.3905 97.3411 67.8286 97.3969 67.0467C97.4416 66.4192 97.5911 65.6737 97.7615 64.8238C97.8029 64.6169 97.8456 64.4039 97.8884 64.1848C98.1059 63.0699 98.3222 61.8087 98.3697 60.4464C98.3722 60.3725 98.3509 60.2816 98.324 60.1892C98.3036 60.1191 98.2774 60.0402 98.2499 59.9573C98.2403 59.9283 98.2305 59.8989 98.2208 59.8692C98.1442 59.6355 98.0662 59.3748 98.0505 59.1254C98.0349 58.8774 98.0815 58.6523 98.2416 58.477C98.4032 58.3002 98.6955 58.1573 99.2086 58.1092L99.1996 58.0135L99.1906 57.9177C98.8102 57.9533 98.5238 57.9647 98.3127 57.9571C98.0986 57.9495 97.9731 57.9225 97.9065 57.8895C97.8747 57.8738 97.8629 57.8599 97.8585 57.8525C97.855 57.8465 97.8524 57.8383 97.8549 57.8224C97.8611 57.7827 97.8952 57.7214 97.967 57.6374C98.0358 57.5568 98.1274 57.4686 98.2279 57.3752C98.253 57.3519 98.2787 57.3282 98.3046 57.3043C98.3808 57.2341 98.4588 57.1621 98.5297 57.0919C98.6244 56.9982 98.7125 56.9019 98.7709 56.8091C98.827 56.7199 98.8711 56.6097 98.8315 56.5013C98.4937 55.5753 98.0595 54.5854 97.6254 53.5957C97.5271 53.3716 97.4288 53.1475 97.3316 52.9242C96.8042 51.7119 96.3097 50.5216 96.0195 49.4601C95.7282 48.3949 95.6487 47.4802 95.9276 46.8084C96.2013 46.1492 96.8326 45.6974 98.0365 45.5847C100.732 45.3324 104.169 46.7736 107.003 48.9708C109.837 51.1687 112.036 54.0976 112.288 56.7886Z" fill="url(#paint13_linear_4_290)" fill-opacity="0.74"/>
<path d="M112.288 56.7886C112.539 59.4765 110.895 62.4317 108.488 64.7871C106.083 67.1408 102.941 68.871 100.239 69.1239C98.9839 69.2413 98.2549 69.0861 97.8508 68.7364C97.4513 68.3905 97.3411 67.8286 97.3969 67.0467C97.4416 66.4192 97.5911 65.6737 97.7615 64.8238C97.8029 64.6169 97.8456 64.4039 97.8884 64.1848C98.1059 63.0699 98.3222 61.8087 98.3697 60.4464C98.3722 60.3725 98.3509 60.2816 98.324 60.1892C98.3036 60.1191 98.2774 60.0402 98.2499 59.9573C98.2403 59.9283 98.2305 59.8989 98.2208 59.8692C98.1442 59.6355 98.0662 59.3748 98.0505 59.1254C98.0349 58.8774 98.0815 58.6523 98.2416 58.477C98.4032 58.3002 98.6955 58.1573 99.2086 58.1092L99.1996 58.0135L99.1906 57.9177C98.8102 57.9533 98.5238 57.9647 98.3127 57.9571C98.0986 57.9495 97.9731 57.9225 97.9065 57.8895C97.8747 57.8738 97.8629 57.8599 97.8585 57.8525C97.855 57.8465 97.8524 57.8383 97.8549 57.8224C97.8611 57.7827 97.8952 57.7214 97.967 57.6374C98.0358 57.5568 98.1274 57.4686 98.2279 57.3752C98.253 57.3519 98.2787 57.3282 98.3046 57.3043C98.3808 57.2341 98.4588 57.1621 98.5297 57.0919C98.6244 56.9982 98.7125 56.9019 98.7709 56.8091C98.827 56.7199 98.8711 56.6097 98.8315 56.5013C98.4937 55.5753 98.0595 54.5854 97.6254 53.5957C97.5271 53.3716 97.4288 53.1475 97.3316 52.9242C96.8042 51.7119 96.3097 50.5216 96.0195 49.4601C95.7282 48.3949 95.6487 47.4802 95.9276 46.8084C96.2013 46.1492 96.8326 45.6974 98.0365 45.5847C100.732 45.3324 104.169 46.7736 107.003 48.9708C109.837 51.1687 112.036 54.0976 112.288 56.7886Z" stroke="#822378" stroke-width="0.192414"/>
</g>
<g style="mix-blend-mode:darken">
<path d="M91.0993 69.3041C92.3526 69.4426 93.0841 69.2995 93.494 68.9566C93.8992 68.6175 94.0188 68.0575 93.9762 67.2748C93.9419 66.6466 93.805 65.8987 93.6488 65.0461C93.6108 64.8386 93.5717 64.6248 93.5326 64.4051C93.3338 63.2867 93.1387 62.022 93.114 60.6592C93.1127 60.5852 93.1355 60.4947 93.1639 60.4028C93.1855 60.333 93.213 60.2545 93.2419 60.1721C93.252 60.1433 93.2623 60.114 93.2725 60.0845C93.353 59.8521 93.4353 59.5928 93.4552 59.3436C93.475 59.0959 93.4322 58.8701 93.275 58.6921C93.1164 58.5126 92.8265 58.3649 92.3143 58.3083L92.3249 58.2126L92.3355 58.117C92.7152 58.159 93.0015 58.1752 93.2126 58.1712C93.4268 58.1671 93.5527 58.1422 93.6199 58.1103C93.652 58.0951 93.664 58.0814 93.6685 58.0741C93.6721 58.0682 93.6749 58.06 93.6727 58.0441C93.6671 58.0043 93.6341 57.9425 93.5637 57.8572C93.4962 57.7755 93.4061 57.6858 93.3072 57.5907C93.2825 57.567 93.2572 57.5429 93.2317 57.5185C93.1567 57.447 93.0798 57.3738 93.0101 57.3024C92.9171 57.2072 92.8306 57.1093 92.7737 57.0156C92.7191 56.9255 92.6769 56.8145 92.7183 56.7068C93.5823 54.4562 94.4465 51.845 94.4889 49.7331C94.5101 48.678 94.3258 47.7598 93.8455 47.0742C93.3678 46.3923 92.5876 45.9266 91.3858 45.7938C89.3942 45.5737 87.3884 46.0111 85.1085 47.2585C84.2393 47.734 83.8533 48.3547 83.5134 49.049C83.4565 49.1652 83.4007 49.2839 83.3441 49.4045C83.0628 50.0035 82.7599 50.6485 82.1832 51.2693C81.9279 51.5441 81.687 51.7874 81.4638 52.013C81.3342 52.144 81.2105 52.269 81.0933 52.3907C80.7722 52.7242 80.4942 53.0387 80.2549 53.4034C79.778 54.1301 79.4472 55.0678 79.2592 56.7689C78.9547 59.5248 80.7758 61.3928 83.2804 63.8396C83.3615 63.9188 83.4431 63.9987 83.5254 64.0791C84.6349 65.1644 85.8516 66.3545 87.0994 67.3281C88.4417 68.3755 89.8064 69.1612 91.0993 69.3041Z" fill="url(#paint14_linear_4_290)" fill-opacity="0.74"/>
<path d="M91.0993 69.3041C92.3526 69.4426 93.0841 69.2995 93.494 68.9566C93.8992 68.6175 94.0188 68.0575 93.9762 67.2748C93.9419 66.6466 93.805 65.8987 93.6488 65.0461C93.6108 64.8386 93.5717 64.6248 93.5326 64.4051C93.3338 63.2867 93.1387 62.022 93.114 60.6592C93.1127 60.5852 93.1355 60.4947 93.1639 60.4028C93.1855 60.333 93.213 60.2545 93.2419 60.1721C93.252 60.1433 93.2623 60.114 93.2725 60.0845C93.353 59.8521 93.4353 59.5928 93.4552 59.3436C93.475 59.0959 93.4322 58.8701 93.275 58.6921C93.1164 58.5126 92.8265 58.3649 92.3143 58.3083L92.3249 58.2126L92.3355 58.117C92.7152 58.159 93.0015 58.1752 93.2126 58.1712C93.4268 58.1671 93.5527 58.1422 93.6199 58.1103C93.652 58.0951 93.664 58.0814 93.6685 58.0741C93.6721 58.0682 93.6749 58.06 93.6727 58.0441C93.6671 58.0043 93.6341 57.9425 93.5637 57.8572C93.4962 57.7755 93.4061 57.6858 93.3072 57.5907C93.2825 57.567 93.2572 57.5429 93.2317 57.5185C93.1567 57.447 93.0798 57.3738 93.0101 57.3024C92.9171 57.2072 92.8306 57.1093 92.7737 57.0156C92.7191 56.9255 92.6769 56.8145 92.7183 56.7068C93.5823 54.4562 94.4465 51.845 94.4889 49.7331C94.5101 48.678 94.3258 47.7598 93.8455 47.0742C93.3678 46.3923 92.5876 45.9266 91.3858 45.7938C89.3942 45.5737 87.3884 46.0111 85.1085 47.2585C84.2393 47.734 83.8533 48.3547 83.5134 49.049C83.4565 49.1652 83.4007 49.2839 83.3441 49.4045C83.0628 50.0035 82.7599 50.6485 82.1832 51.2693C81.9279 51.5441 81.687 51.7874 81.4638 52.013C81.3342 52.144 81.2105 52.269 81.0933 52.3907C80.7722 52.7242 80.4942 53.0387 80.2549 53.4034C79.778 54.1301 79.4472 55.0678 79.2592 56.7689C78.9547 59.5248 80.7758 61.3928 83.2804 63.8396C83.3615 63.9188 83.4431 63.9987 83.5254 64.0791C84.6349 65.1644 85.8516 66.3545 87.0994 67.3281C88.4417 68.3755 89.8064 69.1612 91.0993 69.3041Z" stroke="#822378" stroke-width="0.192414"/>
</g>
<path d="M95.8086 60.79C95.8921 61.0406 96.2466 61.0406 96.3301 60.79L96.3345 60.7768C96.3409 60.7575 96.3495 60.7389 96.36 60.7214L97.134 59.4313C97.1571 59.3928 97.1849 59.3572 97.2167 59.3255L98.2683 58.2738V58.2738C98.4528 58.0894 98.304 57.7755 98.0445 57.8014L96.124 57.9935C96.0876 57.9971 96.051 57.9971 96.0146 57.9935L94.0942 57.8014C93.8346 57.7755 93.6859 58.0894 93.8703 58.2738V58.2738L94.9698 59.6482L95.7677 60.712C95.7854 60.7356 95.7992 60.762 95.8086 60.79V60.79Z" fill="white"/>
<path d="M95.3824 69.569C95.5458 69.4362 95.7819 69.4433 95.937 69.5859V69.5859C96.1614 69.7921 96.5236 69.7014 96.6243 69.4137L96.9532 68.4739C96.9778 68.4036 96.9904 68.3297 96.9904 68.2553V67.8743C96.9904 67.5789 97.1862 67.3193 97.4703 67.2381L98.1483 67.0444V67.0444C98.3799 66.9633 98.3426 66.625 98.099 66.5962L97.062 66.4738C97.0145 66.4682 96.9665 66.4699 96.9195 66.4787L95.7964 66.6893C95.711 66.7053 95.6232 66.7043 95.5381 66.6864L94.1887 66.4023C94.1278 66.3895 94.0645 66.3945 94.0064 66.4166L92.9602 66.8151C92.8373 66.862 92.8708 67.0444 93.0024 67.0444V67.0444C93.0142 67.0444 93.026 67.0461 93.0372 67.0496L93.7134 67.2576C93.9483 67.3299 94.1238 67.5265 94.1691 67.7681L94.3336 68.6452C94.3402 68.6807 94.3498 68.7157 94.3622 68.7496L94.5957 69.3911C94.7081 69.6998 95.0913 69.8057 95.3463 69.5984L95.3824 69.569Z" fill="#4A1434"/>
<path d="M93.4304 58.2833L93.6076 58.1466L93.3772 58.3599L93.4304 58.2833ZM92.0424 60.2824L93.1647 58.666L92.3327 60.2065L92.3212 60.2279V60.2523V62.2883V63.4148L91.8561 64.6491L91.8434 64.683L91.8561 64.7169L92.3274 65.9676L92.33 65.9745L92.3336 65.981L92.7924 66.7928V68.6622L91.4962 64.6785L92.0399 62.3098L92.0424 62.2992V62.2883V60.2824Z" fill="white" stroke="#B4A41C" stroke-width="0.192414"/>
<path d="M97.059 59.2454L96.8818 59.1087L97.1122 59.322L97.059 59.2454ZM98.447 61.2445L97.3247 59.6281L98.1566 61.1686L98.1682 61.19V61.2144V63.2504V64.3769L98.6332 65.6112L98.646 65.6451L98.6332 65.679L98.162 66.9297L98.1594 66.9366L98.1557 66.9431L97.697 67.7549V69.6243L98.9932 65.6406L98.4494 63.2719L98.447 63.2613V63.2504V61.2445Z" fill="white" stroke="#B4A41C" stroke-width="0.192414"/>
<g style="mix-blend-mode:multiply">
<path d="M93.3205 60.7034C94.2826 64.5517 94.1317 67.4379 95.7257 67.4379C97.3197 67.4379 95.7257 64.4585 97.6498 60.7034C97.4507 60.0065 97.6609 59.3674 97.405 58.7792C96.4243 56.5257 95.7257 55.0202 95.7257 53.8758C94.8403 54.8379 93.3205 56.984 93.3205 60.7034ZM95.7257 60.7034C95.7257 61.8444 96.2147 64.0706 95.7257 64.0706C95.2367 64.0706 95.7257 61.5723 94.8403 60.7034C95.2447 59.6482 95.2367 57.3361 95.7257 57.3361C96.2147 57.3361 95.7257 59.6482 95.7257 60.7034Z" fill="url(#paint15_linear_4_290)" fill-opacity="0.76"/>
</g>
<circle cx="80.5731" cy="1.68362" r="1.68362" fill="url(#paint16_radial_4_290)" fill-opacity="0.85"/>
<path d="M78.2765 11.7661C79.2023 13.0637 77.6617 15.7501 76.5263 16.5601C75.3908 17.3701 73.7199 16.9748 72.7942 15.6772C71.8684 14.3796 72.0384 12.671 73.1739 11.861C74.3093 11.0509 77.3508 10.4684 78.2765 11.7661Z" fill="url(#paint17_radial_4_290)" fill-opacity="0.85"/>
<circle cx="76.9654" cy="4.81037" r="1.92414" fill="url(#paint18_radial_4_290)" fill-opacity="0.85"/>
<path d="M96.1163 107.74C96.5075 109.829 95.1312 111.839 93.0422 112.231C90.9531 112.622 86.0171 111.304 85.6259 109.215C85.2346 107.126 89.5364 105.057 91.6254 104.666C93.7145 104.274 95.7251 105.651 96.1163 107.74Z" fill="url(#paint19_radial_4_290)"/>
<path d="M82.606 105.144C82.8597 106.718 81.7897 108.2 80.216 108.453C78.2398 108.285 74.3115 108.096 74.0578 106.523C73.8041 104.949 77.8767 103.958 79.4503 103.704C81.024 103.451 82.3523 103.571 82.606 105.144Z" fill="url(#paint20_radial_4_290)"/>
<path d="M77.4464 100.296C77.4464 101.491 76.4773 102.46 75.2818 102.46C74.0863 102.46 71.193 99.8074 71.193 98.6119C71.193 97.4164 74.0863 98.1309 75.2818 98.1309C76.4773 98.1309 77.4464 99.1 77.4464 100.296Z" fill="url(#paint21_radial_4_290)"/>
<circle cx="135.892" cy="55.0784" r="1.20258" fill="url(#paint22_radial_4_290)"/>
<ellipse cx="115.903" cy="71.5781" rx="3.12672" ry="2.16465" transform="rotate(-85.9642 115.903 71.5781)" fill="url(#paint23_radial_4_290)"/>
<path d="M127.464 64.4055C128.063 65.4401 125.666 67.9506 124.172 68.8159C122.677 69.6812 120.98 69.544 120.381 68.5094C119.782 67.4748 120.508 65.9347 122.002 65.0694C123.497 64.2041 126.865 63.3709 127.464 64.4055Z" fill="url(#paint24_radial_4_290)"/>
<path d="M125.441 54.5176C126.283 54.9104 125.561 58.2499 124.831 59.815C124.102 61.3802 122.827 62.3307 121.984 61.9379C121.142 61.5451 121.05 59.9578 121.779 58.3926C122.509 56.8274 124.598 54.1248 125.441 54.5176Z" fill="url(#paint25_radial_4_290)"/>
<path d="M90.8906 97.6654C92.2836 99.0899 92.2581 101.374 90.8335 102.767C89.4089 104.16 87.1247 104.135 85.7317 102.71C84.3386 101.285 82.6826 97.2817 84.1072 95.8886C85.5317 94.4956 89.4975 96.2408 90.8906 97.6654Z" fill="url(#paint26_radial_4_290)"/>
<circle cx="61.854" cy="104.538" r="1.15448" transform="rotate(88.7024 61.854 104.538)" fill="url(#paint27_radial_4_290)"/>
<circle cx="56.0182" cy="103.16" r="1.15448" transform="rotate(88.7024 56.0182 103.16)" fill="url(#paint28_radial_4_290)"/>
<circle cx="69.7823" cy="104.417" r="1.4431" transform="rotate(88.7024 69.7823 104.417)" fill="url(#paint29_radial_4_290)"/>
<circle cx="131.355" cy="54.3891" r="1.4431" transform="rotate(88.7024 131.355 54.3891)" fill="url(#paint30_radial_4_290)"/>
<circle cx="129.43" cy="60.1615" r="1.4431" transform="rotate(88.7024 129.43 60.1615)" fill="url(#paint31_radial_4_290)"/>
<path d="M64.3566 220.794H75.9833L100.536 226.086L124.927 228.847C125.661 228.93 126.401 228.929 127.134 228.842L150.564 226.086L174.81 220.794H188.928H194.819L175.297 281.465C174.017 285.443 170.316 288.139 166.138 288.139H87.1206C82.955 288.139 79.2626 285.458 77.9728 281.498L58.2051 220.794H64.3566Z" fill="#6D47DA" fill-opacity="0.22"/>
<defs>
<radialGradient id="paint0_radial_4_290" cx="0" cy="0" r="1" gradientUnits="userSpaceOnUse" gradientTransform="translate(57.1495 13.8943) rotate(54.0256) scale(15.7361 16.9324)">
<stop stop-color="#F4CB8E"/>
<stop offset="1" stop-color="#9141B7" stop-opacity="0"/>
</radialGradient>
<linearGradient id="paint1_linear_4_290" x1="58.7488" y1="3.52104" x2="71.4765" y2="17.918" gradientUnits="userSpaceOnUse">
<stop stop-color="#822378"/>
<stop offset="1" stop-color="#822378" stop-opacity="0.38"/>
</linearGradient>
<linearGradient id="paint2_linear_4_290" x1="62.6062" y1="32.1655" x2="72.0629" y2="48.8916" gradientUnits="userSpaceOnUse">
<stop stop-color="#822378"/>
<stop offset="1" stop-color="#822378" stop-opacity="0.38"/>
</linearGradient>
<linearGradient id="paint3_linear_4_290" x1="57.2194" y1="13.1717" x2="64.0011" y2="22.5147" gradientUnits="userSpaceOnUse">
<stop stop-color="#4A1434"/>
<stop offset="1" stop-color="#030102"/>
</linearGradient>
<radialGradient id="paint4_radial_4_290" cx="0" cy="0" r="1" gradientUnits="userSpaceOnUse" gradientTransform="translate(77.6848 29.4596) rotate(68.5606) scale(16.5643 19.0489)">
<stop stop-color="#F4EA8E"/>
<stop offset="1" stop-color="#9141B7" stop-opacity="0"/>
</radialGradient>
<radialGradient id="paint5_radial_4_290" cx="0" cy="0" r="1" gradientUnits="userSpaceOnUse" gradientTransform="translate(76.8207 38.4047) rotate(68.5606) scale(13.7576 19.5452)">
<stop stop-color="#B4A41C"/>
<stop offset="1" stop-color="#9141B7" stop-opacity="0"/>
</radialGradient>
<radialGradient id="paint6_radial_4_290" cx="0" cy="0" r="1" gradientUnits="userSpaceOnUse" gradientTransform="translate(85.0134 35.1875) rotate(68.5606) scale(13.7576 18.8674)">
<stop stop-color="#B4A41C"/>
<stop offset="1" stop-color="#9141B7" stop-opacity="0"/>
</radialGradient>
<linearGradient id="paint7_linear_4_290" x1="82.6894" y1="19.1712" x2="92.002" y2="37.7293" gradientUnits="userSpaceOnUse">
<stop stop-color="#822378"/>
<stop offset="1" stop-color="#822378" stop-opacity="0.38"/>
</linearGradient>
<linearGradient id="paint8_linear_4_290" x1="78.1708" y1="50.4717" x2="83.6489" y2="70.5016" gradientUnits="userSpaceOnUse">
<stop stop-color="#822378"/>
<stop offset="1" stop-color="#822378" stop-opacity="0.38"/>
</linearGradient>
<linearGradient id="paint9_linear_4_290" x1="78.0714" y1="29.1282" x2="82.2913" y2="39.8741" gradientUnits="userSpaceOnUse">
<stop stop-color="#4A1434"/>
<stop offset="1" stop-color="#030102"/>
</linearGradient>
<radialGradient id="paint10_radial_4_290" cx="0" cy="0" r="1" gradientUnits="userSpaceOnUse" gradientTransform="translate(95.2447 53.8758) rotate(90) scale(19.0489 21.1655)">
<stop stop-color="#F4EA8E"/>
<stop offset="1" stop-color="#9141B7" stop-opacity="0"/>
</radialGradient>
<radialGradient id="paint11_radial_4_290" cx="0" cy="0" r="1" gradientUnits="userSpaceOnUse" gradientTransform="translate(90.4344 63.0154) rotate(90) scale(15.8741 21.1655)">
<stop stop-color="#B4A41C"/>
<stop offset="1" stop-color="#9141B7" stop-opacity="0"/>
</radialGradient>
<radialGradient id="paint12_radial_4_290" cx="0" cy="0" r="1" gradientUnits="userSpaceOnUse" gradientTransform="translate(100.055 63.0154) rotate(90) scale(15.8741 21.1655)">
<stop stop-color="#B4A41C"/>
<stop offset="1" stop-color="#9141B7" stop-opacity="0"/>
</radialGradient>
<linearGradient id="paint13_linear_4_290" x1="104.557" y1="44.959" x2="106.778" y2="68.6898" gradientUnits="userSpaceOnUse">
<stop stop-color="#822378"/>
<stop offset="1" stop-color="#822378" stop-opacity="0.38"/>
</linearGradient>
<linearGradient id="paint14_linear_4_290" x1="87.0587" y1="76.5137" x2="84.4409" y2="100.204" gradientUnits="userSpaceOnUse">
<stop stop-color="#822378"/>
<stop offset="1" stop-color="#822378" stop-opacity="0.38"/>
</linearGradient>
<linearGradient id="paint15_linear_4_290" x1="95.4852" y1="53.8758" x2="95.4852" y2="67.4379" gradientUnits="userSpaceOnUse">
<stop stop-color="#4A1434"/>
<stop offset="1" stop-color="#030102"/>
</linearGradient>
<radialGradient id="paint16_radial_4_290" cx="0" cy="0" r="1" gradientUnits="userSpaceOnUse" gradientTransform="translate(80.5731 1.68362) rotate(90) scale(1.68362)">
<stop stop-color="#822378" stop-opacity="0"/>
<stop offset="0.927083" stop-color="#822378"/>
</radialGradient>
<radialGradient id="paint17_radial_4_290" cx="0" cy="0" r="1" gradientUnits="userSpaceOnUse" gradientTransform="translate(74.8501 14.2105) rotate(54.4955) scale(2.8862 2.52543)">
<stop stop-color="#822378" stop-opacity="0"/>
<stop offset="0.927083" stop-color="#822378"/>
</radialGradient>
<radialGradient id="paint18_radial_4_290" cx="0" cy="0" r="1" gradientUnits="userSpaceOnUse" gradientTransform="translate(76.9654 4.81037) rotate(90) scale(1.92414)">
<stop stop-color="#822378" stop-opacity="0"/>
<stop offset="0.927083" stop-color="#822378"/>
</radialGradient>
<radialGradient id="paint19_radial_4_290" cx="0" cy="0" r="1" gradientUnits="userSpaceOnUse" gradientTransform="translate(92.3338 108.448) rotate(79.393) scale(3.84827)">
<stop stop-color="#822378" stop-opacity="0"/>
<stop offset="0.0001" stop-color="#822378" stop-opacity="0.0364583"/>
<stop offset="0.0002" stop-color="#822378" stop-opacity="0.9"/>
<stop offset="0.0003" stop-color="#CB57BF" stop-opacity="0.66"/>
<stop offset="1" stop-color="#822378"/>
</radialGradient>
<radialGradient id="paint20_radial_4_290" cx="0" cy="0" r="1" gradientUnits="userSpaceOnUse" gradientTransform="translate(79.7566 105.604) rotate(80.8411) scale(2.8862)">
<stop stop-color="#E666D9" stop-opacity="0.78"/>
<stop offset="1" stop-color="#822378"/>
</radialGradient>
<radialGradient id="paint21_radial_4_290" cx="0" cy="0" r="1" gradientUnits="userSpaceOnUse" gradientTransform="translate(75.2818 100.296) rotate(90) scale(2.16465)">
<stop stop-color="#7A7379" stop-opacity="0.78"/>
<stop offset="1" stop-color="#822378"/>
</radialGradient>
<radialGradient id="paint22_radial_4_290" cx="0" cy="0" r="1" gradientUnits="userSpaceOnUse" gradientTransform="translate(135.892 55.0784) rotate(90) scale(1.20258)">
<stop stop-color="#7A7379" stop-opacity="0.78"/>
<stop offset="1" stop-color="#822378"/>
</radialGradient>
<radialGradient id="paint23_radial_4_290" cx="0" cy="0" r="1" gradientUnits="userSpaceOnUse" gradientTransform="translate(115.903 71.5781) rotate(90) scale(2.16465 3.12672)">
<stop stop-color="#7A7379" stop-opacity="0.78"/>
<stop offset="1" stop-color="#822378"/>
</radialGradient>
<radialGradient id="paint24_radial_4_290" cx="0" cy="0" r="1" gradientUnits="userSpaceOnUse" gradientTransform="translate(123.087 66.9426) rotate(59.9283) scale(2.16465 3.12672)">
<stop stop-color="#7A7379" stop-opacity="0.78"/>
<stop offset="1" stop-color="#822378"/>
</radialGradient>
<radialGradient id="paint25_radial_4_290" cx="0" cy="0" r="1" gradientUnits="userSpaceOnUse" gradientTransform="translate(123.305 59.1038) rotate(24.9887) scale(1.68362 3.12672)">
<stop stop-color="#7A7379" stop-opacity="0.78"/>
<stop offset="1" stop-color="#822378"/>
</radialGradient>
<radialGradient id="paint26_radial_4_290" cx="0" cy="0" r="1" gradientUnits="userSpaceOnUse" gradientTransform="translate(88.3111 100.188) rotate(45.641) scale(3.60775)">
<stop stop-color="#7A7379" stop-opacity="0.78"/>
<stop offset="1" stop-color="#822378"/>
</radialGradient>
<radialGradient id="paint27_radial_4_290" cx="0" cy="0" r="1" gradientUnits="userSpaceOnUse" gradientTransform="translate(61.854 104.538) rotate(90) scale(1.15448)">
<stop stop-color="#E666D9" stop-opacity="0.78"/>
<stop offset="1" stop-color="#822378"/>
</radialGradient>
<radialGradient id="paint28_radial_4_290" cx="0" cy="0" r="1" gradientUnits="userSpaceOnUse" gradientTransform="translate(56.0182 103.16) rotate(90) scale(1.15448)">
<stop stop-color="#E666D9" stop-opacity="0.78"/>
<stop offset="1" stop-color="#822378"/>
</radialGradient>
<radialGradient id="paint29_radial_4_290" cx="0" cy="0" r="1" gradientUnits="userSpaceOnUse" gradientTransform="translate(69.7823 104.417) rotate(90) scale(1.4431)">
<stop stop-color="#E666D9" stop-opacity="0.78"/>
<stop offset="1" stop-color="#822378"/>
</radialGradient>
<radialGradient id="paint30_radial_4_290" cx="0" cy="0" r="1" gradientUnits="userSpaceOnUse" gradientTransform="translate(131.355 54.3891) rotate(90) scale(1.4431)">
<stop stop-color="#E666D9" stop-opacity="0.78"/>
<stop offset="1" stop-color="#822378"/>
</radialGradient>
<radialGradient id="paint31_radial_4_290" cx="0" cy="0" r="1" gradientUnits="userSpaceOnUse" gradientTransform="translate(129.43 60.1615) rotate(90) scale(1.4431)">
<stop stop-color="#E666D9" stop-opacity="0.78"/>
<stop offset="1" stop-color="#822378"/>
</radialGradient>
</defs>
</svg>
